<?xml version="1.0" encoding="UTF-8"?>
<svg width="1024px" height="1024px" viewBox="0 0 1024 1024" version="1.1" xmlns="http://www.w3.org/2000/svg" xmlns:xlink="http://www.w3.org/1999/xlink">
    <!-- Generator: Sketch 47.1 (45422) - http://www.bohemiancoding.com/sketch -->
    <title>BG-1024px</title>
    <desc>Created with Sketch.</desc>
    <defs></defs>
    <g id="Symbols" stroke="none" stroke-width="1" fill="none" fill-rule="evenodd">
        <g id="BG-1024px">
            <rect id="bg" fill="#540045" x="0" y="0" width="1024" height="1024"></rect>
            <g id="star2" transform="translate(40.000000, -161.000000)" opacity="0.307631341">
                <g id="star">
                    <path d="M23.5,382.5 L23.5,0.5" id="rope" stroke="#FF714B" stroke-linecap="square"></path>
                    <polygon id="body" fill="#EAFF87" points="23.5 416 9.39315394 423.416408 12.0873218 407.708204 0.674643609 396.583592 16.446577 394.291796 23.5 380 30.553423 394.291796 46.3253564 396.583592 34.9126782 407.708204 37.6068461 423.416408"></polygon>
                </g>
            </g>
            <g id="star2" transform="translate(512.000000, 0.000000)" opacity="0.307631341">
                <g id="star">
                    <path d="M36,584.575472 L36,0.764150943" id="rope" stroke="#FF714B" stroke-linecap="square"></path>
                    <polygon id="body" fill="#EAFF87" points="36 635.773585 14.3895124 647.108095 18.5167483 623.101217 1.03349659 606.099452 25.1947562 602.596896 36 580.754717 46.8052438 602.596896 70.9665034 606.099452 53.4832517 623.101217 57.6104876 647.108095"></polygon>
                </g>
            </g>
            <g id="star2" transform="translate(905.000000, -33.000000)" opacity="0.307631341">
                <g id="star">
                    <path d="M30,491.65684 L30,0.642688679" id="rope" stroke="#FF714B" stroke-linecap="square"></path>
                    <polygon id="body" fill="#EAFF87" points="30 534.716981 11.9912604 544.249864 15.4306236 524.058894 0.86124716 509.75957 20.9956302 506.813747 30 488.443396 39.0043698 506.813747 59.1387528 509.75957 44.5693764 524.058894 48.0087396 544.249864"></polygon>
                </g>
            </g>
            <g id="star-copy" opacity="0.307631341" transform="translate(75.000000, -138.000000)">
                <path d="M36.5,646.5 L36.5,0.5" id="rope" stroke="#FF714B" stroke-linecap="square"></path>
                <polygon id="body" fill="#FF714B" points="36.2754467 696.213393 13.8559877 708 18.1377234 683.035565 6.66133815e-16 665.355655 25.0657172 661.713393 36.2754467 639 47.4851763 661.713393 72.5508935 665.355655 54.4131701 683.035565 58.6949058 708"></polygon>
            </g>
            <g id="star1" transform="translate(307.000000, -290.000000)" opacity="0.307631341">
                <g id="star-copy-2">
                    <path d="M23.5,382.5 L23.5,0.5" id="rope" stroke="#FF714B" stroke-linecap="square"></path>
                    <polygon id="body" fill="#FF714B" points="23.5 416 9.39315394 423.416408 12.0873218 407.708204 0.674643609 396.583592 16.446577 394.291796 23.5 380 30.553423 394.291796 46.3253564 396.583592 34.9126782 407.708204 37.6068461 423.416408"></polygon>
                </g>
            </g>
            <g id="star-copy-4" opacity="0.307631341" transform="translate(614.000000, -243.000000)">
                <path d="M47.5,630.5 L47.5,0.5" id="rope" stroke="#FF714B" stroke-linecap="square"></path>
                <polygon id="body" fill="#FF714B" transform="translate(44.203945, 647.791768) rotate(-107.000000) translate(-44.203945, -647.791768) " points="44.2039452 666.990799 25.2533679 676.953708 28.8726061 655.85193 13.541267 640.907567 34.7286565 637.82886 44.2039452 618.629828 53.6792338 637.82886 74.8666234 640.907567 59.5352843 655.85193 63.1545225 676.953708"></polygon>
            </g>
            <g id="star-copy-5" opacity="0.307631341" transform="translate(384.000000, -161.000000)">
                <path d="M47.5,630.5 L47.5,0.5" id="rope" stroke="#FF714B" stroke-linecap="square"></path>
                <polygon id="body" fill="#FF714B" transform="translate(44.203945, 647.791768) rotate(-107.000000) translate(-44.203945, -647.791768) " points="44.2039452 666.990799 25.2533679 676.953708 28.8726061 655.85193 13.541267 640.907567 34.7286565 637.82886 44.2039452 618.629828 53.6792338 637.82886 74.8666234 640.907567 59.5352843 655.85193 63.1545225 676.953708"></polygon>
            </g>
            <g id="moon1" transform="translate(201.000000, -126.000000)" opacity="0.198709239">
                <g id="moon">
                    <path d="M39.5,420.5 L39.5,0.5" id="rope" stroke="#FF714B" stroke-linecap="square"></path>
                    <path d="M73.1680732,408.677969 C67.7600248,406.939085 61.9933543,406 56.0073487,406 C25.0753441,406 0,431.075344 0,462.007349 C0,492.939353 25.0753441,518.014697 56.0073487,518.014697 C77.8446667,518.014697 96.7629953,505.517018 105.999989,487.284005 C100.549729,489.815464 94.4746523,491.228574 88.0695265,491.228574 C64.5343057,491.228574 45.4552395,472.149508 45.4552395,448.614287 C45.4552395,430.321148 56.9817276,414.720165 73.1680732,408.677969 Z" id="body" fill="#EAFF87"></path>
                </g>
            </g>
            <g id="moon1" transform="translate(740.000000, -115.000000)" opacity="0.198709239">
                <g id="moon">
                    <path d="M58.1320755,617.381503 L58.1320755,0.734104046" id="rope" stroke="#FF714B" stroke-linecap="square"></path>
                    <path d="M107.681315,600.024301 C99.7223007,597.471258 91.2355026,596.092486 82.4259094,596.092486 C36.9033366,596.092486 0,632.908309 0,678.322928 C0,723.737548 36.9033366,760.553371 82.4259094,760.553371 C114.563849,760.553371 142.405918,742.204177 155.999984,715.43432 C147.978846,719.151029 139.038168,721.225768 129.611756,721.225768 C94.9750159,721.225768 66.8963902,693.213728 66.8963902,658.659127 C66.8963902,631.800993 83.859901,608.895503 107.681315,600.024301 Z" id="body" fill="#EAFF87"></path>
                </g>
            </g>
        </g>
    </g>
</svg>